<svg width="42" height="42" viewBox="0 0 42 42" fill="none" xmlns="http://www.w3.org/2000/svg">
<path d="M15.7498 28.2975L9.67727 22.225C9.35006 21.8978 8.90626 21.714 8.44352 21.714C7.98077 21.714 7.53698 21.8978 7.20977 22.225C6.88256 22.5522 6.69873 22.996 6.69873 23.4588C6.69873 23.6879 6.74386 23.9148 6.83154 24.1265C6.91923 24.3381 7.04775 24.5305 7.20977 24.6925L14.5248 32.0075C15.2073 32.69 16.3098 32.69 16.9923 32.0075L35.5073 13.4925C35.8345 13.1653 36.0183 12.7215 36.0183 12.2588C36.0183 11.796 35.8345 11.3522 35.5073 11.025C35.1801 10.6978 34.7363 10.514 34.2735 10.514C33.8108 10.514 33.367 10.6978 33.0398 11.025L15.7498 28.2975Z" fill="green"/>
</svg>
