<svg width="20" height="20" viewBox="0 0 20 20" fill="none" xmlns="http://www.w3.org/2000/svg">
<path fill-rule="evenodd" clip-rule="evenodd" d="M17 3C17.2652 3 17.5196 3.10536 17.7071 3.29289C17.8946 3.48043 18 3.73478 18 4V16C18 16.2652 17.8946 16.5196 17.7071 16.7071C17.5196 16.8946 17.2652 17 17 17C16.7348 17 16.4804 16.8946 16.2929 16.7071C16.1054 16.5196 16 16.2652 16 16V4C16 3.73478 16.1054 3.48043 16.2929 3.29289C16.4804 3.10536 16.7348 3 17 3ZM6.707 12.293C6.88916 12.4816 6.98995 12.7342 6.98767 12.9964C6.9854 13.2586 6.88023 13.5094 6.69482 13.6948C6.50941 13.8802 6.2586 13.9854 5.9964 13.9877C5.7342 13.99 5.4816 13.8892 5.293 13.707L2.293 10.707C2.10553 10.5195 2.00021 10.2652 2.00021 10C2.00021 9.73484 2.10553 9.48053 2.293 9.293L5.293 6.293C5.38525 6.19749 5.49559 6.12131 5.6176 6.0689C5.7396 6.01649 5.87082 5.9889 6.0036 5.98775C6.13638 5.9866 6.26806 6.0119 6.39095 6.06218C6.51385 6.11246 6.6255 6.18671 6.71939 6.2806C6.81329 6.3745 6.88754 6.48615 6.93782 6.60905C6.9881 6.73194 7.0134 6.86362 7.01225 6.9964C7.0111 7.12918 6.98351 7.2604 6.9311 7.3824C6.87869 7.50441 6.80251 7.61475 6.707 7.707L5.414 9H13C13.2652 9 13.5196 9.10536 13.7071 9.29289C13.8946 9.48043 14 9.73478 14 10C14 10.2652 13.8946 10.5196 13.7071 10.7071C13.5196 10.8946 13.2652 11 13 11H5.414L6.707 12.293Z" fill="black"/>
</svg>
