<svg width="22" height="22" viewBox="0 0 22 22" fill="none" xmlns="http://www.w3.org/2000/svg">
<path d="M8.00011 4.82L6.36011 3.16C6.72692 2.22836 7.36567 1.4287 8.19324 0.865101C9.0208 0.301501 9.99885 5.71153e-05 11.0001 0C13.7601 0 16.0001 2.24 16.0001 5V7H17.0001C17.5305 7 18.0392 7.21071 18.4143 7.58579C18.7894 7.96086 19.0001 8.46957 19.0001 9V15.8L10.2001 7H14.0001V5C14.0001 3.34 12.6601 2 11.0001 2C9.41011 2 8.11011 3.25 8.00011 4.82ZM21.1101 20.46L19.8401 21.73L18.4601 20.35C18.1001 20.75 17.5801 21 17.0001 21H5.00011C3.89011 21 3.00011 20.11 3.00011 19V9C3.00011 8.46957 3.21082 7.96086 3.58589 7.58579C3.96097 7.21071 4.46967 7 5.00011 7H5.11011L0.110107 2L1.39011 0.73L21.1101 20.46ZM12.8501 14.74L10.2601 12.15C9.50011 12.44 9.00011 13.16 9.00011 14C9.00011 14.5304 9.21082 15.0391 9.58589 15.4142C9.96097 15.7893 10.4697 16 11.0001 16C11.8401 16 12.5601 15.5 12.8501 14.74Z" fill="black"/>
</svg>
