<svg width="24" height="24" viewBox="0 0 24 24" fill="none" xmlns="http://www.w3.org/2000/svg">
<g clip-path="url(#clip0_14839_2)">
<path d="M10.5 0.5H1.5C0.947715 0.5 0.5 0.947715 0.5 1.5V10.5C0.5 11.0523 0.947715 11.5 1.5 11.5H10.5C11.0523 11.5 11.5 11.0523 11.5 10.5V1.5C11.5 0.947715 11.0523 0.5 10.5 0.5Z" fill="white"/>
<path d="M22.5 0.5H13.5C12.9477 0.5 12.5 0.947715 12.5 1.5V10.5C12.5 11.0523 12.9477 11.5 13.5 11.5H22.5C23.0523 11.5 23.5 11.0523 23.5 10.5V1.5C23.5 0.947715 23.0523 0.5 22.5 0.5Z" fill="white"/>
<path d="M22.5 12.5H13.5C12.9477 12.5 12.5 12.9477 12.5 13.5V22.5C12.5 23.0523 12.9477 23.5 13.5 23.5H22.5C23.0523 23.5 23.5 23.0523 23.5 22.5V13.5C23.5 12.9477 23.0523 12.5 22.5 12.5Z" fill="white"/>
<path d="M10.5 12.5H1.5C0.947715 12.5 0.5 12.9477 0.5 13.5V22.5C0.5 23.0523 0.947715 23.5 1.5 23.5H10.5C11.0523 23.5 11.5 23.0523 11.5 22.5V13.5C11.5 12.9477 11.0523 12.5 10.5 12.5Z" fill="white"/>
</g>
<defs>
<clipPath id="clip0_14839_2">
<rect width="24" height="24" fill="white"/>
</clipPath>
</defs>
</svg>
