<svg width="24" height="24" viewBox="0 0 24 24" fill="none" xmlns="http://www.w3.org/2000/svg">
<path d="M3.40032 9.22948C3.79404 8.02115 4.43977 6.91016 5.29482 5.96998C5.36562 5.89234 5.4578 5.83739 5.55976 5.81203C5.66172 5.78668 5.76891 5.79205 5.86782 5.82748L7.90782 6.55348C8.05273 6.60485 8.20705 6.62423 8.36016 6.6103C8.51327 6.59637 8.66155 6.54945 8.79481 6.47278C8.92807 6.3961 9.04315 6.29148 9.13214 6.1661C9.22113 6.04073 9.28191 5.89757 9.31032 5.74648L9.70032 3.62248C9.71935 3.51924 9.76854 3.42396 9.84169 3.34867C9.91485 3.27338 10.0087 3.22146 10.1113 3.19948C11.3575 2.93514 12.6452 2.93514 13.8913 3.19948C14.1013 3.24448 14.2633 3.41098 14.3023 3.62248L14.6923 5.74648C14.7203 5.89782 14.7808 6.04129 14.8696 6.16694C14.9585 6.29259 15.0736 6.39743 15.207 6.47418C15.3404 6.55094 15.4889 6.59779 15.6422 6.61148C15.7955 6.62517 15.9499 6.60538 16.0948 6.55348L18.1348 5.82748C18.2337 5.79205 18.3409 5.78668 18.4429 5.81203C18.5448 5.83739 18.637 5.89234 18.7078 5.96998C19.5622 6.91041 20.2074 8.02135 20.6008 9.22948C20.6333 9.32938 20.6352 9.43669 20.6064 9.5377C20.5775 9.6387 20.5192 9.7288 20.4388 9.79648L18.7858 11.193C18.6681 11.292 18.5735 11.4155 18.5086 11.5549C18.4437 11.6943 18.4101 11.8462 18.4101 12C18.4101 12.1537 18.4437 12.3057 18.5086 12.4451C18.5735 12.5845 18.6681 12.708 18.7858 12.807L20.4388 14.2035C20.6038 14.343 20.6668 14.5665 20.6008 14.7705C20.2076 15.9787 19.5624 17.0897 18.7078 18.03C18.637 18.1076 18.5448 18.1626 18.4429 18.1879C18.3409 18.2133 18.2337 18.2079 18.1348 18.1725L16.0948 17.4465C15.9499 17.3951 15.7956 17.3757 15.6425 17.3896C15.4894 17.4036 15.3411 17.4505 15.2078 17.5272C15.0746 17.6039 14.9595 17.7085 14.8705 17.8338C14.7815 17.9592 14.7207 18.1024 14.6923 18.2535L14.3023 20.3775C14.2834 20.481 14.234 20.5765 14.1606 20.6519C14.0871 20.7272 13.9928 20.7789 13.8898 20.8005C12.6442 21.0648 11.357 21.0648 10.1113 20.8005C10.0084 20.7788 9.91425 20.727 9.84081 20.6516C9.76737 20.5763 9.71795 20.4809 9.69882 20.3775L9.31032 18.2535C9.28238 18.1021 9.22188 17.9587 9.13301 17.833C9.04414 17.7074 8.92902 17.6025 8.79562 17.5258C8.66222 17.449 8.51374 17.4022 8.36044 17.3885C8.20715 17.3748 8.05271 17.3946 7.90782 17.4465L5.86782 18.1725C5.76891 18.2079 5.66172 18.2133 5.55976 18.1879C5.4578 18.1626 5.36562 18.1076 5.29482 18.03C4.44031 17.0896 3.79509 15.9787 3.40182 14.7705C3.36936 14.6706 3.36743 14.5633 3.39629 14.4623C3.42515 14.3612 3.48348 14.2711 3.56382 14.2035L5.21682 12.807C5.33427 12.7078 5.42867 12.5843 5.49343 12.4449C5.55818 12.3055 5.59173 12.1537 5.59173 12C5.59173 11.8463 5.55818 11.6944 5.49343 11.5551C5.42867 11.4157 5.33427 11.2921 5.21682 11.193L3.56382 9.79648C3.48348 9.7288 3.42515 9.6387 3.39629 9.5377C3.36743 9.43669 3.36786 9.32938 3.40032 9.22948ZM9.37482 12C9.37482 12.6962 9.65138 13.3638 10.1437 13.8561C10.636 14.3484 11.3036 14.625 11.9998 14.625C12.696 14.625 13.3637 14.3484 13.856 13.8561C14.3483 13.3638 14.6248 12.6962 14.6248 12C14.6248 11.3038 14.3483 10.6361 13.856 10.1438C13.3637 9.65154 12.696 9.37498 11.9998 9.37498C11.3036 9.37498 10.636 9.65154 10.1437 10.1438C9.65138 10.6361 9.37482 11.3038 9.37482 12Z" fill="#0000b3"/>
</svg>
